<mxfile host="app.diagrams.net" modified="2024-07-18T20:38:04.409Z" agent="Mozilla/5.0 (Windows NT 10.0; Win64; x64) AppleWebKit/537.36 (KHTML, like Gecko) Chrome/126.0.0.0 Safari/537.36" etag="GuE4gaV7is7jjmZaMRI2" version="24.6.5" type="device">
  <diagram name="Page-1" id="Y2J5tfl4Lehv0tbicX7J">
    <mxGraphModel dx="2759" dy="1093" grid="1" gridSize="10" guides="1" tooltips="1" connect="1" arrows="1" fold="1" page="1" pageScale="1" pageWidth="850" pageHeight="1100" math="0" shadow="0">
      <root>
        <mxCell id="0" />
        <mxCell id="1" parent="0" />
        <mxCell id="0glO3w27dz8qWhFezYGf-1" value="&lt;div style=&quot;box-sizing:border-box;width:100%;background:#e4e4e4;padding:2px;&quot;&gt;Bank_Account_Database&lt;/div&gt;&lt;table style=&quot;width:100%;font-size:1em;&quot; cellpadding=&quot;2&quot; cellspacing=&quot;0&quot;&gt;&lt;tbody&gt;&lt;tr&gt;&lt;td&gt;PK&lt;/td&gt;&lt;td&gt;&lt;span style=&quot;white-space: pre;&quot;&gt;&#x9;&lt;/span&gt;Account_Number&lt;/td&gt;&lt;/tr&gt;&lt;tr&gt;&lt;td&gt;FK1&lt;/td&gt;&lt;td&gt;&lt;span style=&quot;white-space: pre;&quot;&gt;&#x9;&lt;/span&gt;User_Number_ID&lt;/td&gt;&lt;/tr&gt;&lt;tr&gt;&lt;td&gt;&lt;/td&gt;&lt;td&gt;&lt;span style=&quot;white-space: pre;&quot;&gt;&#x9;&lt;/span&gt;Account_Type&lt;br&gt;&lt;span style=&quot;white-space: pre;&quot;&gt;&#x9;&lt;/span&gt;Account_Ballance&lt;br&gt;&lt;span style=&quot;white-space: pre;&quot;&gt;&#x9;&lt;/span&gt;Account_Type_Name&lt;br&gt;&lt;/td&gt;&lt;/tr&gt;&lt;/tbody&gt;&lt;/table&gt;" style="verticalAlign=top;align=left;overflow=fill;html=1;whiteSpace=wrap;" parent="1" vertex="1">
          <mxGeometry x="295" y="660" width="190" height="170" as="geometry" />
        </mxCell>
        <mxCell id="0glO3w27dz8qWhFezYGf-2" value="&lt;p style=&quot;margin: 4px 0px 0px; text-align: center; text-decoration: underline; line-height: 70%;&quot;&gt;&lt;b&gt;Object:Type&lt;/b&gt;&lt;/p&gt;&lt;hr size=&quot;1&quot; style=&quot;border-style:solid;&quot;&gt;&lt;p style=&quot;margin: 0px 0px 0px 8px; line-height: 140%;&quot;&gt;field1 = Integer&lt;br&gt;field2 = unique Integer&lt;br&gt;Account_Type = Integer&lt;/p&gt;&lt;p style=&quot;margin: 0px 0px 0px 8px; line-height: 140%;&quot;&gt;Account_Ballance =&amp;nbsp; decimal(15,2)&lt;/p&gt;&lt;p style=&quot;margin: 0px 0px 0px 8px; line-height: 140%;&quot;&gt;Account_Type_Name = Varchar(32)&lt;/p&gt;" style="verticalAlign=top;align=left;overflow=fill;html=1;whiteSpace=wrap;" parent="1" vertex="1">
          <mxGeometry x="485" y="660" width="210" height="170" as="geometry" />
        </mxCell>
        <mxCell id="0glO3w27dz8qWhFezYGf-3" value="BankAccount" style="swimlane;fontStyle=1;align=center;verticalAlign=top;childLayout=stackLayout;horizontal=1;startSize=26;horizontalStack=0;resizeParent=1;resizeParentMax=0;resizeLast=0;collapsible=1;marginBottom=0;whiteSpace=wrap;html=1;" parent="1" vertex="1">
          <mxGeometry x="240" y="1080" width="530" height="320" as="geometry" />
        </mxCell>
        <mxCell id="0glO3w27dz8qWhFezYGf-4" value="int AccountNumber&lt;div&gt;int AccountOwner&lt;/div&gt;&lt;div&gt;int AccountType&lt;/div&gt;&lt;div&gt;BigDecimal Ballance&lt;/div&gt;&lt;div&gt;String AccountTypeName&lt;/div&gt;&lt;div&gt;&lt;br&gt;&lt;/div&gt;" style="text;strokeColor=none;fillColor=none;align=left;verticalAlign=top;spacingLeft=4;spacingRight=4;overflow=hidden;rotatable=0;points=[[0,0.5],[1,0.5]];portConstraint=eastwest;whiteSpace=wrap;html=1;" parent="0glO3w27dz8qWhFezYGf-3" vertex="1">
          <mxGeometry y="26" width="530" height="94" as="geometry" />
        </mxCell>
        <mxCell id="0glO3w27dz8qWhFezYGf-5" value="" style="line;strokeWidth=1;fillColor=none;align=left;verticalAlign=middle;spacingTop=-1;spacingLeft=3;spacingRight=3;rotatable=0;labelPosition=right;points=[];portConstraint=eastwest;strokeColor=inherit;" parent="0glO3w27dz8qWhFezYGf-3" vertex="1">
          <mxGeometry y="120" width="530" height="8" as="geometry" />
        </mxCell>
        <mxCell id="0glO3w27dz8qWhFezYGf-6" value="BankAccount()&lt;div&gt;BankAccount(int AccountOwner, int AccountNumber, int AccountType, BigDecimal Ballance)&lt;/div&gt;&lt;div&gt;int getAccountNumber()&lt;/div&gt;&lt;div&gt;void setAccountNumber(int newAccountNumber)&lt;/div&gt;&lt;div&gt;int getUserNumberID()&lt;/div&gt;&lt;div&gt;void setUserNumberID(int newUserID)&lt;/div&gt;&lt;div&gt;int getAccountType()&lt;/div&gt;&lt;div&gt;void setAccountType(int newAccountType)&lt;/div&gt;&lt;div&gt;BigDecimal getBallance()&lt;/div&gt;&lt;div&gt;voidl setBallance(BigDecimal NewBallance)&lt;/div&gt;&lt;div&gt;Sring getAccountTypeName()&lt;/div&gt;&lt;div&gt;void setAccountTypeName(string NewAccountTypeName)&lt;/div&gt;&lt;div&gt;&lt;br&gt;&lt;/div&gt;&lt;div&gt;&lt;br&gt;&lt;/div&gt;" style="text;strokeColor=none;fillColor=none;align=left;verticalAlign=top;spacingLeft=4;spacingRight=4;overflow=hidden;rotatable=0;points=[[0,0.5],[1,0.5]];portConstraint=eastwest;whiteSpace=wrap;html=1;" parent="0glO3w27dz8qWhFezYGf-3" vertex="1">
          <mxGeometry y="128" width="530" height="192" as="geometry" />
        </mxCell>
        <mxCell id="0glO3w27dz8qWhFezYGf-7" value="BankAccountService" style="swimlane;fontStyle=1;align=center;verticalAlign=top;childLayout=stackLayout;horizontal=1;startSize=26;horizontalStack=0;resizeParent=1;resizeParentMax=0;resizeLast=0;collapsible=1;marginBottom=0;whiteSpace=wrap;html=1;" parent="1" vertex="1">
          <mxGeometry x="240" y="1580" width="560" height="220" as="geometry" />
        </mxCell>
        <mxCell id="0glO3w27dz8qWhFezYGf-8" value="BankRepository bankRepository&lt;div&gt;&lt;br&gt;&lt;/div&gt;" style="text;strokeColor=none;fillColor=none;align=left;verticalAlign=top;spacingLeft=4;spacingRight=4;overflow=hidden;rotatable=0;points=[[0,0.5],[1,0.5]];portConstraint=eastwest;whiteSpace=wrap;html=1;" parent="0glO3w27dz8qWhFezYGf-7" vertex="1">
          <mxGeometry y="26" width="560" height="24" as="geometry" />
        </mxCell>
        <mxCell id="0glO3w27dz8qWhFezYGf-9" value="" style="line;strokeWidth=1;fillColor=none;align=left;verticalAlign=middle;spacingTop=-1;spacingLeft=3;spacingRight=3;rotatable=0;labelPosition=right;points=[];portConstraint=eastwest;strokeColor=inherit;" parent="0glO3w27dz8qWhFezYGf-7" vertex="1">
          <mxGeometry y="50" width="560" height="8" as="geometry" />
        </mxCell>
        <mxCell id="0glO3w27dz8qWhFezYGf-10" value="BankAccountService(BankRepository bankRepository)&lt;div&gt;List&amp;lt;BankAccount&amp;gt; lookup()&lt;/div&gt;&lt;div&gt;BankAccount create(BankAccount newBankAccount)&lt;/div&gt;&lt;div&gt;BankAccount findByID(int number)&lt;/div&gt;&lt;div&gt;List&amp;lt;BankAccount&amp;gt; getAssociatedAccounts(idNum)&lt;/div&gt;&lt;div&gt;BankAccount putDeposit(BigDecimal selectedAmmount, int accountNumber, int accountID)&lt;/div&gt;&lt;div&gt;BankAccount putWithdrawal&lt;span style=&quot;background-color: initial;&quot;&gt;(BigDecimal selectedAmmount, int accountNumber, int accountID)&lt;/span&gt;&lt;/div&gt;&lt;div&gt;&lt;span style=&quot;background-color: initial;&quot;&gt;boolean openNewAccount(int userID)&lt;/span&gt;&lt;/div&gt;&lt;div&gt;&lt;span style=&quot;background-color: initial;&quot;&gt;BankAccount putEndUserDeposit&lt;/span&gt;&lt;span style=&quot;background-color: initial;&quot;&gt;(BigDecimal selectedAmmount, int accountNumber, int accountID)&lt;/span&gt;&lt;/div&gt;&lt;div&gt;&lt;span style=&quot;background-color: initial;&quot;&gt;BankAccount putEndUserWithdrawal&lt;/span&gt;&lt;span style=&quot;background-color: initial;&quot;&gt;(BigDecimal selectedAmmount, int accountNumber, int accountID)&lt;/span&gt;&lt;/div&gt;" style="text;strokeColor=none;fillColor=none;align=left;verticalAlign=top;spacingLeft=4;spacingRight=4;overflow=hidden;rotatable=0;points=[[0,0.5],[1,0.5]];portConstraint=eastwest;whiteSpace=wrap;html=1;" parent="0glO3w27dz8qWhFezYGf-7" vertex="1">
          <mxGeometry y="58" width="560" height="162" as="geometry" />
        </mxCell>
        <mxCell id="0glO3w27dz8qWhFezYGf-11" value="BankAccountController" style="swimlane;fontStyle=1;align=center;verticalAlign=top;childLayout=stackLayout;horizontal=1;startSize=26;horizontalStack=0;resizeParent=1;resizeParentMax=0;resizeLast=0;collapsible=1;marginBottom=0;whiteSpace=wrap;html=1;" parent="1" vertex="1">
          <mxGeometry x="240" y="1820" width="370" height="270" as="geometry" />
        </mxCell>
        <mxCell id="0glO3w27dz8qWhFezYGf-12" value="BankAccountService bankAccountService" style="text;strokeColor=none;fillColor=none;align=left;verticalAlign=top;spacingLeft=4;spacingRight=4;overflow=hidden;rotatable=0;points=[[0,0.5],[1,0.5]];portConstraint=eastwest;whiteSpace=wrap;html=1;" parent="0glO3w27dz8qWhFezYGf-11" vertex="1">
          <mxGeometry y="26" width="370" height="34" as="geometry" />
        </mxCell>
        <mxCell id="0glO3w27dz8qWhFezYGf-13" value="" style="line;strokeWidth=1;fillColor=none;align=left;verticalAlign=middle;spacingTop=-1;spacingLeft=3;spacingRight=3;rotatable=0;labelPosition=right;points=[];portConstraint=eastwest;strokeColor=inherit;" parent="0glO3w27dz8qWhFezYGf-11" vertex="1">
          <mxGeometry y="60" width="370" height="8" as="geometry" />
        </mxCell>
        <mxCell id="0glO3w27dz8qWhFezYGf-14" value="BankAccountController(BankAccountService bankAccountService)&lt;div&gt;Void registerPaths(Javalin app)&lt;/div&gt;&lt;div&gt;Void addAccount(Context context)&lt;/div&gt;&lt;div&gt;void deposit(Context context)&lt;/div&gt;&lt;div&gt;void withdrawal&lt;span style=&quot;background-color: initial;&quot;&gt;(Context context)&lt;/span&gt;&lt;/div&gt;&lt;div&gt;&lt;span style=&quot;background-color: initial;&quot;&gt;List&amp;lt;BankAccount&amp;gt; showAccounts&lt;/span&gt;&lt;span style=&quot;background-color: initial;&quot;&gt;(Context context)&lt;/span&gt;&lt;/div&gt;&lt;div&gt;&lt;span style=&quot;background-color: initial;&quot;&gt;List&amp;lt;BankAccount&amp;gt; getAllUserAccounts&lt;/span&gt;&lt;span style=&quot;background-color: initial;&quot;&gt;(Context context)&lt;/span&gt;&lt;/div&gt;&lt;div&gt;&lt;span style=&quot;background-color: initial;&quot;&gt;void getAccountFromID&lt;/span&gt;&lt;span style=&quot;background-color: initial;&quot;&gt;(Context context)&lt;/span&gt;&lt;/div&gt;&lt;div&gt;&lt;span style=&quot;background-color: initial;&quot;&gt;void getAccountFromEnvironment&lt;/span&gt;&lt;span style=&quot;background-color: initial;&quot;&gt;(Context context)&lt;/span&gt;&lt;/div&gt;&lt;div&gt;&lt;span style=&quot;background-color: initial;&quot;&gt;void putDeposit&lt;/span&gt;&lt;span style=&quot;background-color: initial;&quot;&gt;(Context context)&lt;/span&gt;&lt;/div&gt;&lt;div&gt;&lt;span style=&quot;background-color: initial;&quot;&gt;void putWithdrawal&lt;/span&gt;&lt;span style=&quot;background-color: initial;&quot;&gt;(Context context)&lt;/span&gt;&lt;/div&gt;&lt;div&gt;&lt;span style=&quot;background-color: initial;&quot;&gt;void postNewBankAccount&lt;/span&gt;&lt;span style=&quot;background-color: initial;&quot;&gt;(Context context)&lt;/span&gt;&lt;/div&gt;&lt;div&gt;&lt;br&gt;&lt;/div&gt;" style="text;strokeColor=none;fillColor=none;align=left;verticalAlign=top;spacingLeft=4;spacingRight=4;overflow=hidden;rotatable=0;points=[[0,0.5],[1,0.5]];portConstraint=eastwest;whiteSpace=wrap;html=1;" parent="0glO3w27dz8qWhFezYGf-11" vertex="1">
          <mxGeometry y="68" width="370" height="202" as="geometry" />
        </mxCell>
        <mxCell id="0glO3w27dz8qWhFezYGf-15" value="AccountHolder" style="swimlane;fontStyle=1;align=center;verticalAlign=top;childLayout=stackLayout;horizontal=1;startSize=26;horizontalStack=0;resizeParent=1;resizeParentMax=0;resizeLast=0;collapsible=1;marginBottom=0;whiteSpace=wrap;html=1;" parent="1" vertex="1">
          <mxGeometry x="-220" y="1110" width="230" height="410" as="geometry" />
        </mxCell>
        <mxCell id="0glO3w27dz8qWhFezYGf-16" value="String userName&lt;div&gt;int userNumID&lt;/div&gt;&lt;div&gt;String Password&lt;/div&gt;&lt;div&gt;String FirstName&lt;/div&gt;&lt;div&gt;String LastName&lt;/div&gt;&lt;div&gt;AccountType type&amp;nbsp;&lt;/div&gt;" style="text;strokeColor=none;fillColor=none;align=left;verticalAlign=top;spacingLeft=4;spacingRight=4;overflow=hidden;rotatable=0;points=[[0,0.5],[1,0.5]];portConstraint=eastwest;whiteSpace=wrap;html=1;" parent="0glO3w27dz8qWhFezYGf-15" vertex="1">
          <mxGeometry y="26" width="230" height="114" as="geometry" />
        </mxCell>
        <mxCell id="0glO3w27dz8qWhFezYGf-17" value="" style="line;strokeWidth=1;fillColor=none;align=left;verticalAlign=middle;spacingTop=-1;spacingLeft=3;spacingRight=3;rotatable=0;labelPosition=right;points=[];portConstraint=eastwest;strokeColor=inherit;" parent="0glO3w27dz8qWhFezYGf-15" vertex="1">
          <mxGeometry y="140" width="230" height="8" as="geometry" />
        </mxCell>
        <mxCell id="0glO3w27dz8qWhFezYGf-18" value="&lt;div&gt;enum AccountType{endUser, admin}&lt;/div&gt;AccountHolder()&lt;div&gt;AccountHolder(String UserName, String Password, int userNumID)&lt;/div&gt;&lt;div&gt;String getUserName()&lt;/div&gt;&lt;div&gt;Void setUserName(String Email)&lt;/div&gt;&lt;div&gt;String getPassword()&lt;/div&gt;&lt;div&gt;Void setPassword(String Password)&lt;/div&gt;&lt;div&gt;String getFirstName()&lt;/div&gt;&lt;div&gt;Void setFIrstName(String Name)&lt;/div&gt;&lt;div&gt;&lt;div&gt;String getLastName()&lt;/div&gt;&lt;div&gt;Void setLastName(String Name)&lt;/div&gt;&lt;/div&gt;&lt;div&gt;int getUserNumID()&lt;/div&gt;&lt;div&gt;Void setUserNumID(int userNumID)&lt;/div&gt;&lt;div&gt;AccountType getAccountType()&lt;/div&gt;&lt;div&gt;Void setAccountType(AccountType type)&lt;/div&gt;&lt;div&gt;&lt;br&gt;&lt;/div&gt;" style="text;strokeColor=none;fillColor=none;align=left;verticalAlign=top;spacingLeft=4;spacingRight=4;overflow=hidden;rotatable=0;points=[[0,0.5],[1,0.5]];portConstraint=eastwest;whiteSpace=wrap;html=1;" parent="0glO3w27dz8qWhFezYGf-15" vertex="1">
          <mxGeometry y="148" width="230" height="262" as="geometry" />
        </mxCell>
        <mxCell id="0glO3w27dz8qWhFezYGf-19" value="AccountService" style="swimlane;fontStyle=1;align=center;verticalAlign=top;childLayout=stackLayout;horizontal=1;startSize=26;horizontalStack=0;resizeParent=1;resizeParentMax=0;resizeLast=0;collapsible=1;marginBottom=0;whiteSpace=wrap;html=1;" parent="1" vertex="1">
          <mxGeometry x="-220" y="1800" width="400" height="180" as="geometry" />
        </mxCell>
        <mxCell id="0glO3w27dz8qWhFezYGf-20" value="Account Repository accountRepository" style="text;strokeColor=none;fillColor=none;align=left;verticalAlign=top;spacingLeft=4;spacingRight=4;overflow=hidden;rotatable=0;points=[[0,0.5],[1,0.5]];portConstraint=eastwest;whiteSpace=wrap;html=1;" parent="0glO3w27dz8qWhFezYGf-19" vertex="1">
          <mxGeometry y="26" width="400" height="24" as="geometry" />
        </mxCell>
        <mxCell id="0glO3w27dz8qWhFezYGf-21" value="" style="line;strokeWidth=1;fillColor=none;align=left;verticalAlign=middle;spacingTop=-1;spacingLeft=3;spacingRight=3;rotatable=0;labelPosition=right;points=[];portConstraint=eastwest;strokeColor=inherit;" parent="0glO3w27dz8qWhFezYGf-19" vertex="1">
          <mxGeometry y="50" width="400" height="8" as="geometry" />
        </mxCell>
        <mxCell id="0glO3w27dz8qWhFezYGf-22" value="&lt;div&gt;Account Service(AccountRepository accountRepository)&lt;/div&gt;&lt;div&gt;List&amp;lt;Accounts&amp;gt; lookup()&lt;/div&gt;&lt;div&gt;Account create(Account newObject)&lt;/div&gt;&lt;div&gt;Account findByID(int number)&lt;/div&gt;&lt;div&gt;boolean checkIfEmailIsInUse(String Email)&lt;/div&gt;&lt;div&gt;boolean newUserCreateAccount(String Username, String Password)&lt;/div&gt;&lt;div&gt;Account findByEmailAndPassword(String Email, String Password)&lt;/div&gt;" style="text;strokeColor=none;fillColor=none;align=left;verticalAlign=top;spacingLeft=4;spacingRight=4;overflow=hidden;rotatable=0;points=[[0,0.5],[1,0.5]];portConstraint=eastwest;whiteSpace=wrap;html=1;" parent="0glO3w27dz8qWhFezYGf-19" vertex="1">
          <mxGeometry y="58" width="400" height="122" as="geometry" />
        </mxCell>
        <mxCell id="0glO3w27dz8qWhFezYGf-23" value="AccountController" style="swimlane;fontStyle=1;align=center;verticalAlign=top;childLayout=stackLayout;horizontal=1;startSize=26;horizontalStack=0;resizeParent=1;resizeParentMax=0;resizeLast=0;collapsible=1;marginBottom=0;whiteSpace=wrap;html=1;" parent="1" vertex="1">
          <mxGeometry x="-220" y="1550" width="340" height="230" as="geometry" />
        </mxCell>
        <mxCell id="0glO3w27dz8qWhFezYGf-24" value="&lt;div&gt;AccountService accountService&lt;/div&gt;" style="text;strokeColor=none;fillColor=none;align=left;verticalAlign=top;spacingLeft=4;spacingRight=4;overflow=hidden;rotatable=0;points=[[0,0.5],[1,0.5]];portConstraint=eastwest;whiteSpace=wrap;html=1;" parent="0glO3w27dz8qWhFezYGf-23" vertex="1">
          <mxGeometry y="26" width="340" height="64" as="geometry" />
        </mxCell>
        <mxCell id="0glO3w27dz8qWhFezYGf-25" value="" style="line;strokeWidth=1;fillColor=none;align=left;verticalAlign=middle;spacingTop=-1;spacingLeft=3;spacingRight=3;rotatable=0;labelPosition=right;points=[];portConstraint=eastwest;strokeColor=inherit;" parent="0glO3w27dz8qWhFezYGf-23" vertex="1">
          <mxGeometry y="90" width="340" height="8" as="geometry" />
        </mxCell>
        <mxCell id="0glO3w27dz8qWhFezYGf-26" value="AccountController(AccountService accountService)&lt;div&gt;Void addAccount(String email, String Password, int userNum)&lt;/div&gt;&lt;div&gt;Void registerPaths(Javalin app)&lt;/div&gt;&lt;div&gt;List&amp;lt;Account&amp;gt; getAllAccounts(Context context)&lt;br&gt;&lt;/div&gt;&lt;div&gt;Void getAccountsByID(Context context)&lt;/div&gt;&lt;div&gt;Void postNewAccount(Context context)&lt;br&gt;&lt;/div&gt;&lt;div&gt;Void postCreateNewAccount(Context context)&lt;br&gt;&lt;/div&gt;" style="text;strokeColor=none;fillColor=none;align=left;verticalAlign=top;spacingLeft=4;spacingRight=4;overflow=hidden;rotatable=0;points=[[0,0.5],[1,0.5]];portConstraint=eastwest;whiteSpace=wrap;html=1;" parent="0glO3w27dz8qWhFezYGf-23" vertex="1">
          <mxGeometry y="98" width="340" height="132" as="geometry" />
        </mxCell>
        <mxCell id="0glO3w27dz8qWhFezYGf-27" value="Project&lt;span style=&quot;background-color: initial;&quot;&gt;Runner&lt;/span&gt;" style="html=1;whiteSpace=wrap;" parent="1" vertex="1">
          <mxGeometry x="495" y="415" width="110" height="50" as="geometry" />
        </mxCell>
        <mxCell id="0glO3w27dz8qWhFezYGf-28" value="Bank" style="shape=folder;fontStyle=1;spacingTop=10;tabWidth=40;tabHeight=14;tabPosition=left;html=1;whiteSpace=wrap;" parent="1" vertex="1">
          <mxGeometry x="420" y="960" width="140" height="90" as="geometry" />
        </mxCell>
        <mxCell id="0glO3w27dz8qWhFezYGf-29" value="Accounts" style="shape=folder;fontStyle=1;spacingTop=10;tabWidth=40;tabHeight=14;tabPosition=left;html=1;whiteSpace=wrap;" parent="1" vertex="1">
          <mxGeometry x="-220" y="960" width="140" height="100" as="geometry" />
        </mxCell>
        <mxCell id="0glO3w27dz8qWhFezYGf-30" value="&lt;div style=&quot;box-sizing:border-box;width:100%;background:#e4e4e4;padding:2px;&quot;&gt;Accounts_Database&lt;/div&gt;&lt;table style=&quot;width:100%;font-size:1em;&quot; cellpadding=&quot;2&quot; cellspacing=&quot;0&quot;&gt;&lt;tbody&gt;&lt;tr&gt;&lt;td&gt;&lt;br&gt;&lt;/td&gt;&lt;td&gt;&lt;span style=&quot;white-space: pre;&quot;&gt;&#x9;&lt;/span&gt;Email&lt;span style=&quot;white-space: pre;&quot;&gt;&#x9;&lt;/span&gt;&lt;span style=&quot;white-space: pre;&quot;&gt;&#x9;&lt;/span&gt;&lt;/td&gt;&lt;/tr&gt;&lt;tr&gt;&lt;td&gt;PK&lt;/td&gt;&lt;td&gt;&lt;span style=&quot;white-space: pre;&quot;&gt;&#x9;&lt;/span&gt;User_Number_ID&lt;/td&gt;&lt;/tr&gt;&lt;tr&gt;&lt;td&gt;&lt;/td&gt;&lt;td&gt;&lt;span style=&quot;white-space: pre;&quot;&gt;&#x9;&lt;/span&gt;Password&lt;br&gt;&lt;span style=&quot;white-space: pre;&quot;&gt;&#x9;&lt;/span&gt;First_Name&lt;br&gt;&lt;span style=&quot;white-space: pre;&quot;&gt;&#x9;&lt;/span&gt;Last_Name&lt;br&gt;&lt;span style=&quot;white-space: pre;&quot;&gt;&#x9;&lt;/span&gt;account_privlege&lt;br&gt;&lt;/td&gt;&lt;/tr&gt;&lt;/tbody&gt;&lt;/table&gt;" style="verticalAlign=top;align=left;overflow=fill;html=1;whiteSpace=wrap;" parent="1" vertex="1">
          <mxGeometry x="-332.5" y="660" width="160" height="170" as="geometry" />
        </mxCell>
        <mxCell id="0glO3w27dz8qWhFezYGf-31" value="&lt;p style=&quot;margin: 4px 0px 0px; text-align: center; text-decoration: underline; line-height: 70%;&quot;&gt;&lt;b&gt;Object:Type&lt;/b&gt;&lt;/p&gt;&lt;hr size=&quot;1&quot; style=&quot;border-style:solid;&quot;&gt;&lt;p style=&quot;margin: 0px 0px 0px 8px; line-height: 140%;&quot;&gt;Email = Varchar (320) Unique&lt;br&gt;UserNumberID = Integer Primary Key&lt;br&gt;Password = Varchar (64)&lt;/p&gt;&lt;p style=&quot;margin: 0px 0px 0px 8px; line-height: 140%;&quot;&gt;First Name = VarChar(64)&lt;/p&gt;&lt;p style=&quot;margin: 0px 0px 0px 8px; line-height: 140%;&quot;&gt;Last Name = VarChar(64)&lt;/p&gt;&lt;p style=&quot;margin: 0px 0px 0px 8px; line-height: 140%;&quot;&gt;Account_privlege = member_enum default endUser&lt;/p&gt;" style="verticalAlign=top;align=left;overflow=fill;html=1;whiteSpace=wrap;" parent="1" vertex="1">
          <mxGeometry x="-172.5" y="660" width="295" height="170" as="geometry" />
        </mxCell>
        <mxCell id="7-qMezpOySbF6Rhn_ekF-1" value="Account Repository" style="swimlane;fontStyle=1;align=center;verticalAlign=top;childLayout=stackLayout;horizontal=1;startSize=26;horizontalStack=0;resizeParent=1;resizeParentMax=0;resizeLast=0;collapsible=1;marginBottom=0;whiteSpace=wrap;html=1;" vertex="1" parent="1">
          <mxGeometry x="-220" y="2000" width="360" height="160" as="geometry" />
        </mxCell>
        <mxCell id="7-qMezpOySbF6Rhn_ekF-3" value="" style="line;strokeWidth=1;fillColor=none;align=left;verticalAlign=middle;spacingTop=-1;spacingLeft=3;spacingRight=3;rotatable=0;labelPosition=right;points=[];portConstraint=eastwest;strokeColor=inherit;" vertex="1" parent="7-qMezpOySbF6Rhn_ekF-1">
          <mxGeometry y="26" width="360" height="8" as="geometry" />
        </mxCell>
        <mxCell id="7-qMezpOySbF6Rhn_ekF-4" value="&lt;div&gt;List&amp;lt;Account&amp;gt; lookup()&lt;/div&gt;&lt;div&gt;Account create(Account addedAccount)&lt;/div&gt;&lt;div&gt;Account findByID(int number)&lt;/div&gt;&lt;div&gt;boolean update(Account account)&lt;/div&gt;&lt;div&gt;Account findByEmailAndPassword(String Email, String password)&lt;/div&gt;&lt;div&gt;Account findByEmail(String email)&lt;/div&gt;&lt;div&gt;Account generateAccountFromResultSet(ResultSet rs)&lt;/div&gt;" style="text;strokeColor=none;fillColor=none;align=left;verticalAlign=top;spacingLeft=4;spacingRight=4;overflow=hidden;rotatable=0;points=[[0,0.5],[1,0.5]];portConstraint=eastwest;whiteSpace=wrap;html=1;" vertex="1" parent="7-qMezpOySbF6Rhn_ekF-1">
          <mxGeometry y="34" width="360" height="126" as="geometry" />
        </mxCell>
        <mxCell id="7-qMezpOySbF6Rhn_ekF-5" value="BankRepository" style="swimlane;fontStyle=1;align=center;verticalAlign=top;childLayout=stackLayout;horizontal=1;startSize=26;horizontalStack=0;resizeParent=1;resizeParentMax=0;resizeLast=0;collapsible=1;marginBottom=0;whiteSpace=wrap;html=1;" vertex="1" parent="1">
          <mxGeometry x="240" y="1410" width="510" height="150" as="geometry" />
        </mxCell>
        <mxCell id="7-qMezpOySbF6Rhn_ekF-7" value="" style="line;strokeWidth=1;fillColor=none;align=left;verticalAlign=middle;spacingTop=-1;spacingLeft=3;spacingRight=3;rotatable=0;labelPosition=right;points=[];portConstraint=eastwest;strokeColor=inherit;" vertex="1" parent="7-qMezpOySbF6Rhn_ekF-5">
          <mxGeometry y="26" width="510" height="8" as="geometry" />
        </mxCell>
        <mxCell id="7-qMezpOySbF6Rhn_ekF-8" value="List&amp;lt;BankAccount&amp;gt; lookup()&lt;div&gt;BankAccount create(BankAccount newBankAccount)&lt;/div&gt;&lt;div&gt;BankAccount findByID(int number)&lt;/div&gt;&lt;div&gt;List&amp;lt;BankAccount&amp;gt; findAssociatedAccounts(int number)&lt;/div&gt;&lt;div&gt;BankAccount deposit(BigDecimal depositAmmount, int accountNumber, int accountID)&lt;/div&gt;&lt;div&gt;BankAccount withdrawal(BankAccount accountWithFunds, BigDecimal withdrawalAmmount)&lt;/div&gt;&lt;div&gt;BankAccount generateAccountFromResultSet(ResultSet rs)&lt;/div&gt;" style="text;strokeColor=none;fillColor=none;align=left;verticalAlign=top;spacingLeft=4;spacingRight=4;overflow=hidden;rotatable=0;points=[[0,0.5],[1,0.5]];portConstraint=eastwest;whiteSpace=wrap;html=1;" vertex="1" parent="7-qMezpOySbF6Rhn_ekF-5">
          <mxGeometry y="34" width="510" height="116" as="geometry" />
        </mxCell>
        <mxCell id="7-qMezpOySbF6Rhn_ekF-9" value="Auth Controller" style="swimlane;fontStyle=1;align=center;verticalAlign=top;childLayout=stackLayout;horizontal=1;startSize=26;horizontalStack=0;resizeParent=1;resizeParentMax=0;resizeLast=0;collapsible=1;marginBottom=0;whiteSpace=wrap;html=1;" vertex="1" parent="1">
          <mxGeometry x="-290" y="355" width="280" height="110" as="geometry" />
        </mxCell>
        <mxCell id="7-qMezpOySbF6Rhn_ekF-10" value="AuthService authService" style="text;strokeColor=none;fillColor=none;align=left;verticalAlign=top;spacingLeft=4;spacingRight=4;overflow=hidden;rotatable=0;points=[[0,0.5],[1,0.5]];portConstraint=eastwest;whiteSpace=wrap;html=1;" vertex="1" parent="7-qMezpOySbF6Rhn_ekF-9">
          <mxGeometry y="26" width="280" height="34" as="geometry" />
        </mxCell>
        <mxCell id="7-qMezpOySbF6Rhn_ekF-11" value="" style="line;strokeWidth=1;fillColor=none;align=left;verticalAlign=middle;spacingTop=-1;spacingLeft=3;spacingRight=3;rotatable=0;labelPosition=right;points=[];portConstraint=eastwest;strokeColor=inherit;" vertex="1" parent="7-qMezpOySbF6Rhn_ekF-9">
          <mxGeometry y="60" width="280" height="8" as="geometry" />
        </mxCell>
        <mxCell id="7-qMezpOySbF6Rhn_ekF-12" value="Void postLogin(Context context)" style="text;strokeColor=none;fillColor=none;align=left;verticalAlign=top;spacingLeft=4;spacingRight=4;overflow=hidden;rotatable=0;points=[[0,0.5],[1,0.5]];portConstraint=eastwest;whiteSpace=wrap;html=1;" vertex="1" parent="7-qMezpOySbF6Rhn_ekF-9">
          <mxGeometry y="68" width="280" height="42" as="geometry" />
        </mxCell>
        <mxCell id="7-qMezpOySbF6Rhn_ekF-13" value="Auth Service" style="swimlane;fontStyle=1;align=center;verticalAlign=top;childLayout=stackLayout;horizontal=1;startSize=26;horizontalStack=0;resizeParent=1;resizeParentMax=0;resizeLast=0;collapsible=1;marginBottom=0;whiteSpace=wrap;html=1;" vertex="1" parent="1">
          <mxGeometry x="-290" y="465" width="280" height="110" as="geometry" />
        </mxCell>
        <mxCell id="7-qMezpOySbF6Rhn_ekF-14" value="AccountService accountService" style="text;strokeColor=none;fillColor=none;align=left;verticalAlign=top;spacingLeft=4;spacingRight=4;overflow=hidden;rotatable=0;points=[[0,0.5],[1,0.5]];portConstraint=eastwest;whiteSpace=wrap;html=1;" vertex="1" parent="7-qMezpOySbF6Rhn_ekF-13">
          <mxGeometry y="26" width="280" height="34" as="geometry" />
        </mxCell>
        <mxCell id="7-qMezpOySbF6Rhn_ekF-15" value="" style="line;strokeWidth=1;fillColor=none;align=left;verticalAlign=middle;spacingTop=-1;spacingLeft=3;spacingRight=3;rotatable=0;labelPosition=right;points=[];portConstraint=eastwest;strokeColor=inherit;" vertex="1" parent="7-qMezpOySbF6Rhn_ekF-13">
          <mxGeometry y="60" width="280" height="8" as="geometry" />
        </mxCell>
        <mxCell id="7-qMezpOySbF6Rhn_ekF-16" value="Account login(String Email, String password))" style="text;strokeColor=none;fillColor=none;align=left;verticalAlign=top;spacingLeft=4;spacingRight=4;overflow=hidden;rotatable=0;points=[[0,0.5],[1,0.5]];portConstraint=eastwest;whiteSpace=wrap;html=1;" vertex="1" parent="7-qMezpOySbF6Rhn_ekF-13">
          <mxGeometry y="68" width="280" height="42" as="geometry" />
        </mxCell>
        <mxCell id="7-qMezpOySbF6Rhn_ekF-25" value="db.properties" style="swimlane;fontStyle=0;childLayout=stackLayout;horizontal=1;startSize=26;fillColor=none;horizontalStack=0;resizeParent=1;resizeParentMax=0;resizeLast=0;collapsible=1;marginBottom=0;whiteSpace=wrap;html=1;" vertex="1" parent="1">
          <mxGeometry x="905" y="795" width="140" height="104" as="geometry" />
        </mxCell>
        <mxCell id="7-qMezpOySbF6Rhn_ekF-26" value="UserName" style="text;strokeColor=none;fillColor=none;align=left;verticalAlign=top;spacingLeft=4;spacingRight=4;overflow=hidden;rotatable=0;points=[[0,0.5],[1,0.5]];portConstraint=eastwest;whiteSpace=wrap;html=1;" vertex="1" parent="7-qMezpOySbF6Rhn_ekF-25">
          <mxGeometry y="26" width="140" height="26" as="geometry" />
        </mxCell>
        <mxCell id="7-qMezpOySbF6Rhn_ekF-27" value="Password" style="text;strokeColor=none;fillColor=none;align=left;verticalAlign=top;spacingLeft=4;spacingRight=4;overflow=hidden;rotatable=0;points=[[0,0.5],[1,0.5]];portConstraint=eastwest;whiteSpace=wrap;html=1;" vertex="1" parent="7-qMezpOySbF6Rhn_ekF-25">
          <mxGeometry y="52" width="140" height="26" as="geometry" />
        </mxCell>
        <mxCell id="7-qMezpOySbF6Rhn_ekF-28" value="URL" style="text;strokeColor=none;fillColor=none;align=left;verticalAlign=top;spacingLeft=4;spacingRight=4;overflow=hidden;rotatable=0;points=[[0,0.5],[1,0.5]];portConstraint=eastwest;whiteSpace=wrap;html=1;" vertex="1" parent="7-qMezpOySbF6Rhn_ekF-25">
          <mxGeometry y="78" width="140" height="26" as="geometry" />
        </mxCell>
        <mxCell id="7-qMezpOySbF6Rhn_ekF-37" value="ConnectionFactory" style="swimlane;fontStyle=1;align=center;verticalAlign=top;childLayout=stackLayout;horizontal=1;startSize=26;horizontalStack=0;resizeParent=1;resizeParentMax=0;resizeLast=0;collapsible=1;marginBottom=0;whiteSpace=wrap;html=1;" vertex="1" parent="1">
          <mxGeometry x="500" y="255" width="300" height="150" as="geometry" />
        </mxCell>
        <mxCell id="7-qMezpOySbF6Rhn_ekF-38" value="&lt;div&gt;ConnectionFactory connectionFactory&lt;/div&gt;&lt;div&gt;Properties properties&lt;/div&gt;" style="text;strokeColor=none;fillColor=none;align=left;verticalAlign=top;spacingLeft=4;spacingRight=4;overflow=hidden;rotatable=0;points=[[0,0.5],[1,0.5]];portConstraint=eastwest;whiteSpace=wrap;html=1;" vertex="1" parent="7-qMezpOySbF6Rhn_ekF-37">
          <mxGeometry y="26" width="300" height="44" as="geometry" />
        </mxCell>
        <mxCell id="7-qMezpOySbF6Rhn_ekF-39" value="" style="line;strokeWidth=1;fillColor=none;align=left;verticalAlign=middle;spacingTop=-1;spacingLeft=3;spacingRight=3;rotatable=0;labelPosition=right;points=[];portConstraint=eastwest;strokeColor=inherit;" vertex="1" parent="7-qMezpOySbF6Rhn_ekF-37">
          <mxGeometry y="70" width="300" height="8" as="geometry" />
        </mxCell>
        <mxCell id="7-qMezpOySbF6Rhn_ekF-40" value="ConnectionFactory()&lt;div&gt;ConnectionFactory getConnectionFactory()&lt;/div&gt;&lt;div&gt;Connection getConnection()&lt;/div&gt;&lt;div&gt;Static Block --- For Driver Avaliability Check&lt;/div&gt;" style="text;strokeColor=none;fillColor=none;align=left;verticalAlign=top;spacingLeft=4;spacingRight=4;overflow=hidden;rotatable=0;points=[[0,0.5],[1,0.5]];portConstraint=eastwest;whiteSpace=wrap;html=1;" vertex="1" parent="7-qMezpOySbF6Rhn_ekF-37">
          <mxGeometry y="78" width="300" height="72" as="geometry" />
        </mxCell>
        <mxCell id="7-qMezpOySbF6Rhn_ekF-47" value="&lt;p style=&quot;margin:0px;margin-top:4px;text-align:center;&quot;&gt;&lt;i&gt;&amp;lt;&amp;lt;Interface&amp;gt;&amp;gt;&lt;/i&gt;&lt;br&gt;Controller&lt;/p&gt;&lt;p style=&quot;margin:0px;margin-left:4px;&quot;&gt;&lt;br&gt;&lt;/p&gt;&lt;hr size=&quot;1&quot; style=&quot;border-style:solid;&quot;&gt;&lt;p style=&quot;margin:0px;margin-left:4px;&quot;&gt;Void registerPaths(Javalin app)&lt;/p&gt;" style="verticalAlign=top;align=left;overflow=fill;html=1;whiteSpace=wrap;" vertex="1" parent="1">
          <mxGeometry x="40" y="510" width="190" height="90" as="geometry" />
        </mxCell>
        <mxCell id="7-qMezpOySbF6Rhn_ekF-48" value="&lt;p style=&quot;margin:0px;margin-top:4px;text-align:center;&quot;&gt;&lt;i&gt;&amp;lt;&amp;lt;Interface&amp;gt;&amp;gt;&lt;/i&gt;&lt;br&gt;&lt;b&gt;Serviceable&lt;/b&gt;&lt;/p&gt;&lt;p style=&quot;margin:0px;margin-left:4px;&quot;&gt;&lt;br&gt;&lt;/p&gt;&lt;hr size=&quot;1&quot; style=&quot;border-style:solid;&quot;&gt;&lt;p style=&quot;margin:0px;margin-left:4px;&quot;&gt;List&amp;lt;O&amp;gt; lookup()&lt;br&gt;O create(O newObject)&lt;/p&gt;&lt;p style=&quot;margin:0px;margin-left:4px;&quot;&gt;O findByID(int number)&lt;/p&gt;" style="verticalAlign=top;align=left;overflow=fill;html=1;whiteSpace=wrap;" vertex="1" parent="1">
          <mxGeometry x="40" y="355" width="190" height="140" as="geometry" />
        </mxCell>
        <mxCell id="7-qMezpOySbF6Rhn_ekF-49" value="DataNotFoundException" style="html=1;whiteSpace=wrap;" vertex="1" parent="1">
          <mxGeometry x="290" y="355" width="170" height="50" as="geometry" />
        </mxCell>
        <mxCell id="7-qMezpOySbF6Rhn_ekF-50" value="InvalidInputException" style="html=1;whiteSpace=wrap;" vertex="1" parent="1">
          <mxGeometry x="290" y="410" width="170" height="50" as="geometry" />
        </mxCell>
        <mxCell id="7-qMezpOySbF6Rhn_ekF-51" value="SQL FIle" style="html=1;whiteSpace=wrap;" vertex="1" parent="1">
          <mxGeometry x="905" y="720" width="110" height="50" as="geometry" />
        </mxCell>
        <mxCell id="7-qMezpOySbF6Rhn_ekF-53" value="exceptions" style="shape=folder;fontStyle=1;spacingTop=10;tabWidth=40;tabHeight=14;tabPosition=left;html=1;whiteSpace=wrap;" vertex="1" parent="1">
          <mxGeometry x="340" y="255" width="70" height="50" as="geometry" />
        </mxCell>
        <mxCell id="7-qMezpOySbF6Rhn_ekF-54" value="auth" style="shape=folder;fontStyle=1;spacingTop=10;tabWidth=40;tabHeight=14;tabPosition=left;html=1;whiteSpace=wrap;" vertex="1" parent="1">
          <mxGeometry x="-230" y="255" width="70" height="50" as="geometry" />
        </mxCell>
        <mxCell id="7-qMezpOySbF6Rhn_ekF-55" value="Interfaces" style="shape=folder;fontStyle=1;spacingTop=10;tabWidth=40;tabHeight=14;tabPosition=left;html=1;whiteSpace=wrap;" vertex="1" parent="1">
          <mxGeometry x="100" y="255" width="70" height="50" as="geometry" />
        </mxCell>
        <mxCell id="7-qMezpOySbF6Rhn_ekF-56" value="Util" style="shape=folder;fontStyle=1;spacingTop=10;tabWidth=40;tabHeight=14;tabPosition=left;html=1;whiteSpace=wrap;" vertex="1" parent="1">
          <mxGeometry x="130" y="80" width="160" height="90" as="geometry" />
        </mxCell>
        <mxCell id="7-qMezpOySbF6Rhn_ekF-59" value="Resources" style="shape=folder;fontStyle=1;spacingTop=10;tabWidth=40;tabHeight=14;tabPosition=left;html=1;whiteSpace=wrap;" vertex="1" parent="1">
          <mxGeometry x="890" y="575" width="140" height="90" as="geometry" />
        </mxCell>
      </root>
    </mxGraphModel>
  </diagram>
</mxfile>
